#N canvas -8 -8 1920 989 10;
#X obj 219 705 *~;
#X obj 464 353 else/note2pitch;
#X obj 529 457 else/keyboard 10 50 3 3 0 0 empty empty;
#X obj 200 -264 tgl 25 0 empty empty START|STOP 27 12 0 25 -242778
-1 -1 1 1;
#X obj 218 665 else/plate.rev~;
#X floatatom 247 479 5 0 0 0 - - -;
#X obj 149 522 else/vsaw~;
#X floatatom 214 481 5 0 0 0 - - -;
#X floatatom 283 479 5 0 0 0 - - -;
#X obj 172 606 else/highpass~ 600 0.25;
#X obj -114 -27 vsl 15 128 0 3000 0 0 empty hp empty 0 -9 0 10 -64192
-1 -1 4600 1;
#X floatatom 237 565 8 0 0 0 - - -;
#X floatatom 307 567 5 0 0 0 - - -;
#X obj 493 700 nbx 4 14 -1e+37 1e+37 0 0 empty attack empty 0 -8 0
10 -228856 -1 -1 200 256;
#X obj 548 700 nbx 4 14 -1e+37 1e+37 0 0 empty decay empty 0 -8 0 10
-228856 -1 -1 200 256;
#X obj 603 700 nbx 4 14 0.01 1 0 0 empty sustain empty 0 -8 0 10 -228856
-1 -1 0.9 256;
#X obj 658 700 nbx 4 14 -1e+37 1e+37 0 0 empty release empty 0 -8 0
10 -228856 -1 -1 500 256;
#X obj 617 184 else/trig2bang~;
#X obj 148 500 mtof~;
#X obj 146 476 sig~;
#X obj -65 -27 vsl 15 128 0 3000 0 0 empty res-center-freq empty 0
-9 0 10 -64192 -1 -1 1719 1;
#X floatatom 331 598 5 0 0 0 - - -;
#X obj 217 642 else/resonant~ 420 25;
#X obj -48 -27 vsl 15 128 0 100 0 0 empty res-q empty 0 -9 0 10 -64192
-1 -1 8982 1;
#X floatatom 391 596 5 0 0 0 - - -;
#X obj 617 161 else/match~ 1;
#X obj 619 134 else/display~;
#X obj 392 195 else/trig2bang~;
#X obj 392 217 bng 15 250 50 0 empty empty empty 17 7 0 10 -262144
-1 -1;
#X floatatom 611 89 5 0 0 0 - subdivide -;
#X floatatom 548 109 5 0 0 0 - swing -;
#X obj 548 131 clip 0 100;
#X obj 448 601 else/suspedal -retrig 1;
#X obj 591 574 tgl 15 0 empty empty empty 17 7 0 10 -262144 -1 -1 1
1;
#X obj 556 755 tgl 15 0 empty empty empty 17 7 0 10 -262144 -1 -1 1
1;
#X obj 433 717 / 127;
#X obj 404 632 unpack f f;
#X obj 445 655 else/voices 2 1 -retrig 2;
#X floatatom 490 139 5 0 0 0 - tempo -;
#X floatatom 407 655 5 0 0 0 - - -;
#X obj 433 735 else/adsr~ 25 40 0.5 100;
#X obj 686 570 vradio 15 1 0 4 empty empty empty 0 -8 0 10 -262144
-1 -1 0;
#X floatatom 686 637 3 0 0 0 - - -;
#X msg 686 659 retrig \$1;
#X obj 753 569 vradio 15 1 0 4 empty empty empty 0 -8 0 10 -262144
-1 -1 2;
#X floatatom 753 636 3 0 0 0 - - -;
#X msg 753 658 retrig \$1;
#X obj -373 -508 text define -k \$0-pitches;
#A set;
#X obj 270 58 vradio 15 1 0 6 empty empty empty 0 -8 0 10 -262144 -1
-1 1;
#X obj 469 304 else/sequencer;
#X obj 469 325 else/display;
#X obj 220 729 *~;
#X obj 239 505 osc~;
#X obj 270 178 else/insert set;
#X obj 271 22 else/display;
#X msg 624 270 goto \$1;
#X obj 624 292 else/display;
#X obj 617 207 bng 15 250 50 0 empty empty empty 17 7 0 10 -262144
-1 -1;
#X obj 624 320 t b;
#X obj 624 342 else/sequencer;
#X obj 624 364 else/display;
#X obj -373 -489 text define -k \$0-pitches-1;
#A set C5 - E5-C5 - G5 - A5 - A5 - B5 - B5 \; C5 E5-B5 G5 G5 D5 A5
F5 B5 \; C4-C5 - E5-E4-G4- A4-A5-C4 - C4 E4 G4 - B4 G4 D4 - A4 C5 G4
- C4-C5-E4-G4 \;;
#X obj 941 668 *~;
#X obj 1168 589 *~;
#X obj 1168 563 noise~;
#X obj 222 302 else/trig2bang~;
#X obj 225 326 bng 15 250 50 0 empty empty empty 17 7 0 10 -262144
-1 -1;
#X obj 1005 966 *~;
#X obj 270 154 text get \$0-pitches-1;
#X floatatom -230 193 5 0 0 0 - - -;
#X floatatom -162 192 5 0 0 0 - - -;
#X floatatom -45 199 5 0 0 0 - - -;
#X msg -45 223 wet \$1;
#X msg -162 218 damp \$1;
#X floatatom -110 196 5 0 0 0 - - -;
#X msg -110 219 width \$1;
#X msg -230 219 decay \$1;
#X obj 223 267 else/pulsediv~ 2;
#X floatatom 318 243 5 0 0 0 - - -;
#X obj 941 642 else/lfnoise~ 1000;
#X obj 993 888 else/free.rev~ 1 1 0.133 0.24;
#X obj 1230 576 else/decay~ 250;
#X obj 1069 566 else/impseq~;
#X obj 941 610 else/display~;
#X obj 1069 534 bng 15 250 50 0 empty empty empty 17 7 0 10 -262144
-1 -1;
#X floatatom 506 279 5 0 0 0 - - -;
#X obj 1448 592 / 127;
#X obj 1374 593 mtof;
#X obj 1341 465 t b b;
#X obj 1364 431 bng 17 250 50 0 empty empty empty 17 7 0 10 -228856
-1 -1;
#X obj 1450 559 notein;
#X obj 1344 558 makenote 0 5;
#X msg 1107 620 0.65;
#X obj 941 694 else/highpass~ 1300 0.35;
#X obj 940 559 else/dust~ 1;
#X obj 940 585 else/rand.f~ 420 500;
#X floatatom 1511 598 5 0 0 0 - - -;
#X obj 617 229 else/rand.i 1 8;
#X obj 0 -27 vsl 15 128 0 1 0 0 empty width empty 0 -9 0 10 -262144
-1 -1 10000 1;
#X obj 17 -27 vsl 15 128 0 1 0 0 empty sync empty 0 -9 0 10 -262144
-1 -1 9796 1;
#X obj 34 -27 vsl 15 128 0 1 0 0 empty offset empty 0 -9 0 10 -262144
-1 -1 800 1;
#X obj -97 -27 vsl 15 128 0 1 0 0 empty hp-q empty 0 -9 0 10 -64192
-1 -1 6849 1;
#X floatatom 350 774 5 0 0 0 - - -;
#X obj -196 -27 vsl 15 128 0 1 0 0 empty rev2-decay empty 0 -9 0 10
-64192 -1 -1 11795 1;
#X obj -179 -27 vsl 15 128 0 1 0 0 empty rev2-damp empty 0 -9 0 10
-64192 -1 -1 2699 1;
#X obj -162 -27 vsl 15 128 0 1 0 0 empty rev2-width empty 0 -9 0 10
-64192 -1 -1 8897 1;
#X obj -145 -27 vsl 15 128 0 1 0 0 empty rev2-wet empty 0 -9 0 10 -64192
-1 -1 10885 1;
#X floatatom 1094 992 5 0 0 0 - - -;
#X msg -386 -125 color #3da9fc;
#X msg -386 -106 color #fffffe;
#X msg -386 -86 color #90b4ce;
#X obj -355 734 else/meter~;
#X obj -281 734 else/meter~;
#X obj 180 -235 sel 0;
#X obj 223 -235 sel 1;
#X obj 223 -198 bng 15 250 50 0 empty empty empty 17 7 0 10 -262144
-1 -1;
#X obj 180 -199 bng 15 250 50 0 empty empty empty 17 7 0 10 -262144
-1 -1;
#X obj 181 -313 vradio 15 1 0 5 empty empty CHOOSE-PRESET 0 -8 0 10
-242778 -1 -1 1;
#X floatatom 267 410 5 0 0 0 - - -;
#X msg -385 -66 color #ef4565;
#X obj -297 -124 bng 15 250 50 0 empty empty empty 17 7 0 10 -64192
-1 -1;
#X obj -297 -105 bng 15 250 50 0 empty empty empty 17 7 0 10 -262144
-1 -1;
#X obj -297 -86 bng 15 250 50 0 empty empty empty 17 7 0 10 -150388
-1 -1;
#X obj -297 -67 bng 15 250 50 0 empty empty empty 17 7 0 10 -242778
-1 -1;
#X obj 324 106 loadbang;
#X msg 324 128 0;
#X obj 339 313 cyclone/gate;
#X obj 345 291 tgl 15 0 empty empty empty 17 7 0 10 -262144 -1 -1 0
1;
#X obj -600 -296 initmess \; rev2-decay 0.204 \; rev2-damp 0.48 \;
rev2-width 0.448 \; rev2-wet 0.472 \; beats-vol 0.125;
#X obj 1110 431 bng 15 250 50 0 empty empty empty 17 7 0 10 -262144
-1 -1;
#X obj 1240 430 bng 15 250 50 0 empty empty empty 17 7 0 10 -262144
-1 -1;
#X obj 1047 286 hradio 15 1 0 12 empty empty empty 0 -8 0 10 -262144
-1 -1 1;
#X obj 1364 408 else/euclid 12 6 3;
#X obj 1116 408 else/euclid 12 4 1;
#X obj 1237 408 else/euclid 12 5 4;
#X floatatom 1149 257 5 0 0 0 - - -;
#X obj -31 -27 vsl 15 128 0 3000 0 0 empty res-center-freq empty 0
-9 0 10 -64192 -1 -1 1578 1;
#X floatatom 1234 637 5 0 0 0 - - -;
#X floatatom 1258 241 5 0 0 0 - - -;
#X obj 1240 200 bng 15 250 50 0 empty empty empty 17 7 0 10 -262144
-1 -1;
#X obj 1239 182 route 10;
#X obj 374 249 else/count 24;
#X obj 374 269 route 24;
#X floatatom 380 366 5 0 0 0 - res-limit -;
#X obj -230 -470 initmess \; tempo 273 \; swing 5 \; subdivide 4 \;
width 0.118 \; sync 0.299 \; offset 0.47 \; rev1-predelay 292.9 \;
rev1-cutoff 0.85 \; rev1-damping 0.119 \; rev1-roomsize 0.922 \; rev1-wet
0.716 \; hp 519.685 \; hp-q 0.645 \; res-center-freq 188.9 \; res-q
31.49 \; res-limit 290 \; midi-vol 0.85 \; attack 25 \; decay 100 \;
sustain 0.25 \; release 100;
#X obj -373 -470 initmess \; tempo 110 \; swing 3 \; subdivide 6 \;
width 0.346 \; sync 0.165 \; offset 0.4543 \; rev1-predelay 669.2 \;
rev1-cutoff 0.133 \; rev1-damping 0.196 \; rev1-roomsize 0.862 \; rev1-wet
0.85 \; hp 1842.52 \; hp-q 0.5551 \; res-center-freq 377.9 \; res-q
66 \; res-limit 700 \; midi-vol 0.818 \; attack 200 \; decay 250 \;
sustain 0.8 \; release 400;
#X obj 1148 236 else/rand.i 1 8;
#X obj 721 331 *~;
#X obj 736 266 else/display~;
#X floatatom 781 172 8 0 0 0 - - -;
#X obj 736 297 else/adsr~ 25 100 0.25 100;
#X obj 779 113 else/note2pitch;
#X floatatom 779 136 5 0 0 0 - - -;
#X obj 780 154 mtof;
#X obj 798 350 *~ 0.65;
#X obj 737 241 else/randpulse~ 0.5;
#X floatatom 1284 306 5 0 0 0 - - -;
#X obj 1253 219 else/rand.f 310 540;
#X obj 1107 644 else/decay~ 250;
#X obj 780 189 else/oscbank~ 4 -freq \$1 -ratio 0.8 0.5 0.83 1 -amp
0.5 0.8 0.65 0.65, f 27;
#X obj 598 40 else/s2f~;
#X floatatom 598 61 5 0 0 0 - - -;
#X obj 671 60 route 1;
#X msg 671 82 0;
#X msg 724 82 2;
#X obj 270 -197 bng 15 250 50 0 empty empty empty 17 7 0 10 -262144
-1 -1;
#X obj 270 -234 sel 2;
#X msg -232 530 \$1 0.5 0.23;
#X floatatom -232 506 5 0 1 0 - - -;
#X obj -484 -296 initmess \; rev2-decay 0.976 \; rev2-damp 0.118 \;
rev2-width 0.795 \; rev2-wet 0.55 \; beats-vol 0.25;
#X obj -86 -470 initmess \; tempo 65 \; swing 5 \; subdivide 6 \; width
0.125 \; sync 0.165 \; offset 0.65 \; rev1-predelay 669.2 \; rev1-cutoff
0.133 \; rev1-damping 0.196 \; rev1-roomsize 0.858 \; rev1-wet 0.85
\; hp 1842.52 \; hp-q 0.555 \; res-center-freq 288 \; res-q 66 \; res-limit
500 \; midi-vol 0.94 \; attack 200 \; decay 200 \; sustain 0.9 \; release
500;
#X obj 596 17 else/pulsecount~ 32;
#X obj 720 164 route 24;
#X obj 506 258 else/rand.i 60 120;
#X obj 464 392 makenote 90 200;
#X msg 720 184 1;
#X obj 1343 491 else/rand.i 75 110;
#X obj 724 42 change;
#X obj 671 38 change;
#X obj 720 144 change;
#X obj 941 440 else/rand.f 0.244 0.388;
#X obj 942 462 else/crackle~;
#X floatatom 1030 463 5 0 0 0 - - -;
#X obj 940 482 else/lowpass~ 600 0.25;
#X obj 1134 667 else/resonant~ 280 0.5;
#X msg 1142 521 q;
#X obj -537 596 else/sample~ \$0-amb forest-amb.wav;
#X obj -307 419 else/tabplayer~ \$0-amb;
#X obj -466 572 else/sample~ \$0-birds forest-bird.wav;
#X obj -350 627 nbx 10 14 -1e+37 1e+37 0 0 empty empty empty 0 -8 0
10 -262144 -1 -1 1.83016e+06 256;
#X msg -464 550 info;
#X obj -466 627 nbx 10 14 -1e+37 1e+37 0 0 empty empty empty 0 -8 0
10 -262144 -1 -1 529123 256;
#X obj -306 399 tgl 15 0 empty empty empty 17 7 0 10 -262144 -1 -1
1 1;
#X obj -306 489 *~ 2;
#X msg -253 390 loop \$1;
#X obj -253 369 tgl 15 0 empty empty empty 17 7 0 10 -262144 -1 -1
1 1;
#X obj -306 458 else/highpass~ 250 0.2;
#X obj -232 554 else/morph 1000;
#X floatatom -232 579 5 0 0 0 - - -;
#X obj 700 678 rand.f 0.75 1;
#X obj 1241 705 else/fbdelay~ 25 500;
#X obj -118 477 tgl 15 0 empty empty empty 17 7 0 10 -262144 -1 -1
1 1;
#X obj -117 560 *~ 2;
#X msg -79 469 loop \$1;
#X obj -79 448 tgl 15 0 empty empty empty 17 7 0 10 -262144 -1 -1 1
1;
#X obj -118 497 else/tabplayer~ \$0-birds;
#X floatatom -33 640 5 0 0 0 - - -;
#X obj -119 538 else/highpass~ 500 0.35;
#X obj 1283 285 else/rand.i 1 4;
#X text -200 -47 reverb 2;
#X text -113 -44 hp;
#X text -69 -44 resonant;
#X text -2 -44 vsaw;
#X msg -36 603 \$1 0.5 0.23;
#X floatatom -33 584 5 0 1 0 - - -;
#X obj -32 622 else/morph 1000;
#X msg 350 730 \$1 0.5 0.23;
#X floatatom 351 711 5 0 1 0 - - -;
#X obj 350 754 else/morph 1000;
#X obj -306 438 else/chorus~ 0.7 50 0.35;
#X msg 1093 954 \$1 0.5 0.23;
#X floatatom 1093 935 5 0 1 0 - - -;
#X obj 1093 973 else/morph 1000;
#X obj 1363 719 else/lorenz~ 3000.77;
#X obj 1361 741 else/resonant~ 580 0.35;
#X msg 1234 555 0.65;
#X obj 1510 574 rand.i 300 380;
#X obj 1375 618 else/pluck~ 50 250 2000;
#X obj 1378 531 else/rand.i 50 80;
#X obj -203 -489 text define -k \$0-vol;
#A set;
#X obj -183 -118 text get \$0-vol;
#X floatatom -185 -75 5 0 0 0 - - -;
#X floatatom -151 -76 5 0 0 0 - - -;
#X obj -183 -96 unpack f f f f;
#X floatatom -115 -75 5 0 0 0 - - -;
#X floatatom -80 -74 5 0 0 0 - - -;
#X obj -277 -172 vradio 15 1 0 8 empty empty empty 0 -8 0 10 -262144
-1 -1 0;
#X msg 366 554 t60;
#X msg 411 492 q;
#X obj -153 891 else/out~;
#X obj -219 734 else/meter~;
#X obj -51 882 nbx 5 14 -1e+37 1e+37 0 0 empty empty empty 0 -8 0 10
-228856 -1 -1 1 256;
#X obj -119 516 else/chorus~ 0.7 25 0.5;
#X obj 725 62 route 4;
#X obj 617 113 else/pulsecount~ 3;
#X msg -51 924 set \$1;
#X obj -306 342 tgl 25 0 empty empty Ambient-recs 27 12 0 25 -242778
-1 -1 1 1;
#X msg -51 861 1;
#X obj 401 168 else/tempo~ 100 35 -div 4;
#X obj -51 838 loadbang;
#X obj -169 495 bng 15 250 50 0 empty empty empty 17 7 0 10 -262144
-1 -1;
#X obj -306 509 throw~ amb;
#X obj -502 704 catch~ amb;
#X obj -123 580 throw~ amb-1;
#X obj -434 704 catch~ amb-1;
#X obj -502 734 else/meter~;
#X obj -434 734 else/meter~;
#X obj 1001 987 throw~ noise;
#X obj -280 704 catch~ noise;
#X obj -709 95 s amb.vol;
#X obj -665 128 s amb1.vol;
#X obj -498 119 s noise.vol;
#X obj -33 561 r amb1.vol;
#X obj -242 485 r amb.vol;
#X obj 1093 915 r noise.vol;
#X obj -573 120 s pitch.vol;
#X obj 352 683 r pitch.vol;
#X obj 220 748 throw~ pitch;
#X obj -354 704 catch~ pitch;
#X obj -398 116 s \$0-plate.rev;
#X obj 128 637 r \$0-plate.rev;
#X obj -214 281 s \$0-free.rev;
#X obj 1042 727 r \$0-free.rev;
#X obj -129 136 s hp.cfreq;
#X obj -128 162 s hp.q;
#X obj 239 545 r hp.cfreq;
#X obj 304 545 r hp.q;
#X obj 2 111 s vsaw.width;
#X obj 2 130 s vsaw.sync;
#X obj 2 151 s vsaw.offset;
#X obj 174 460 r vsaw.width;
#X obj 235 459 r vsaw.sync;
#X obj 277 460 r vsaw.offset;
#X obj -84 117 s r.cfreq;
#X obj -45 166 s r.cfreq1;
#X obj -46 137 s r.q;
#X obj 330 579 r r.cfreq;
#X obj 391 578 r r.q;
#X obj 1232 616 r r.cfreq1;
#X obj -52 733 ui.scope~ @size 150 100 @receive "(null)" @send "(null)"
@pinned 0 @background_color 0.93 0.93 0.93 1 @border_color 0.6 0.6
0.6 1 @label_color 0 0 0 1 @active_color 0 0.75 1 1 @fontname "Helvetica"
@fontweight "normal" @fontslant "roman" @fontsize 11 @label "(null)"
@label_inner 0 @label_side "top" @label_align "left" @label_valign
"top" @label_margins 0 0 @max 2.05355 @min -2.05355 @window 2048 @refresh
40;
#X obj 219 685 else/fbdelay~ 100 500;
#X obj 1048 263 else/count 12;
#X obj 268 433 morph 700;
#X obj 266 391 rand.f 250 550;
#X obj -509 879 export/save-audio-2;
#X obj -587 -27 ../customs/vol.ui;
#A saved 0.811024 0;
#X obj -587 5 ../customs/vol.ui;
#A saved 0.488189 0;
#X obj -587 37 ../customs/vol.ui;
#A saved 0.299213 0;
#X obj -587 69 ../customs/vol.ui;
#A saved 0.11811 0;
#X obj -398 -27 ../customs/plate.rev.ui;
#A saved 362.205 0.125984 0.637795 0.889764 0.937008;
#X floatatom 6 196 5 0 0 0 - - -;
#X floatatom 24 229 5 0 0 0 - - -;
#X connect 0 0 51 0;
#X connect 1 0 174 0;
#X connect 2 0 32 0;
#X connect 3 0 33 0;
#X connect 3 0 248 0;
#X connect 4 0 290 0;
#X connect 4 1 290 0;
#X connect 5 0 6 2;
#X connect 6 0 9 0;
#X connect 7 0 6 1;
#X connect 8 0 52 0;
#X connect 9 0 22 0;
#X connect 10 0 273 0;
#X connect 11 0 9 1;
#X connect 12 0 9 2;
#X connect 13 0 40 1;
#X connect 14 0 40 2;
#X connect 15 0 40 3;
#X connect 16 0 40 4;
#X connect 17 0 57 0;
#X connect 18 0 6 0;
#X connect 19 0 18 0;
#X connect 20 0 283 0;
#X connect 20 0 301 0;
#X connect 21 0 22 1;
#X connect 22 0 4 0;
#X connect 23 0 285 0;
#X connect 23 0 300 0;
#X connect 24 0 22 2;
#X connect 25 0 17 0;
#X connect 26 0 25 0;
#X connect 27 0 28 0;
#X connect 27 0 173 0;
#X connect 28 0 49 0;
#X connect 28 0 141 0;
#X connect 29 0 248 3;
#X connect 30 0 31 0;
#X connect 31 0 248 2;
#X connect 32 0 37 0;
#X connect 32 1 37 1;
#X connect 33 0 32 2;
#X connect 35 0 40 0;
#X connect 36 0 39 0;
#X connect 36 1 35 0;
#X connect 37 0 36 0;
#X connect 38 0 248 1;
#X connect 39 0 19 0;
#X connect 40 0 0 1;
#X connect 40 1 34 0;
#X connect 41 0 42 0;
#X connect 42 0 43 0;
#X connect 43 0 32 0;
#X connect 44 0 45 0;
#X connect 45 0 46 0;
#X connect 46 0 37 0;
#X connect 48 0 68 0;
#X connect 49 0 50 0;
#X connect 50 0 1 0;
#X connect 51 0 267 0;
#X connect 52 0 6 3;
#X connect 53 0 54 0;
#X connect 55 0 56 0;
#X connect 56 0 58 0;
#X connect 57 0 97 0;
#X connect 58 0 59 0;
#X connect 59 0 60 0;
#X connect 60 0 1 0;
#X connect 60 0 151 0;
#X connect 62 0 93 0;
#X connect 63 0 184 0;
#X connect 64 0 63 0;
#X connect 65 0 66 0;
#X connect 65 0 291 0;
#X connect 66 0 84 0;
#X connect 67 0 257 0;
#X connect 68 0 49 1;
#X connect 68 0 53 0;
#X connect 68 0 59 1;
#X connect 69 0 76 0;
#X connect 70 0 73 0;
#X connect 71 0 72 0;
#X connect 72 0 271 0;
#X connect 73 0 271 0;
#X connect 74 0 75 0;
#X connect 75 0 271 0;
#X connect 76 0 271 0;
#X connect 77 0 65 0;
#X connect 78 0 77 1;
#X connect 79 0 62 0;
#X connect 80 0 67 0;
#X connect 80 1 67 0;
#X connect 81 0 63 1;
#X connect 82 0 79 1;
#X connect 83 0 79 0;
#X connect 84 0 82 0;
#X connect 85 0 174 1;
#X connect 86 0 227 1;
#X connect 87 0 227 0;
#X connect 88 0 176 0;
#X connect 88 1 228 0;
#X connect 89 0 88 0;
#X connect 89 0 226 0;
#X connect 90 0 87 0;
#X connect 90 1 86 0;
#X connect 91 0 87 0;
#X connect 91 1 86 0;
#X connect 92 0 158 0;
#X connect 93 0 80 0;
#X connect 93 0 80 1;
#X connect 94 0 95 0;
#X connect 95 0 83 0;
#X connect 96 0 227 3;
#X connect 97 0 55 0;
#X connect 98 0 277 0;
#X connect 99 0 278 0;
#X connect 100 0 279 0;
#X connect 101 0 274 0;
#X connect 102 0 51 1;
#X connect 103 0 69 0;
#X connect 104 0 70 0;
#X connect 105 0 74 0;
#X connect 106 0 71 0;
#X connect 107 0 67 1;
#X connect 108 0 120 0;
#X connect 109 0 121 0;
#X connect 110 0 122 0;
#X connect 113 0 116 0;
#X connect 114 0 115 0;
#X connect 115 0 145 0;
#X connect 115 0 169 0;
#X connect 116 0 128 0;
#X connect 116 0 144 0;
#X connect 117 0 113 0;
#X connect 117 0 114 0;
#X connect 117 0 166 0;
#X connect 118 0 292 0;
#X connect 119 0 123 0;
#X connect 124 0 125 0;
#X connect 124 0 237 0;
#X connect 124 0 238 0;
#X connect 124 0 185 0;
#X connect 125 0 48 0;
#X connect 126 0 199 0;
#X connect 126 0 293 0;
#X connect 127 0 126 0;
#X connect 129 0 92 0;
#X connect 130 0 225 0;
#X connect 132 0 89 0;
#X connect 133 0 129 0;
#X connect 134 0 130 0;
#X connect 135 0 133 2;
#X connect 136 0 284 0;
#X connect 137 0 184 1;
#X connect 138 0 136 0;
#X connect 139 0 146 0;
#X connect 139 0 157 0;
#X connect 139 0 180 0;
#X connect 139 0 208 0;
#X connect 140 0 139 0;
#X connect 141 0 142 0;
#X connect 142 0 126 1;
#X connect 143 0 293 2;
#X connect 146 0 135 0;
#X connect 147 0 154 0;
#X connect 148 0 150 0;
#X connect 149 0 159 0;
#X connect 150 0 147 1;
#X connect 151 0 152 0;
#X connect 152 0 153 0;
#X connect 153 0 149 0;
#X connect 154 0 4 0;
#X connect 155 0 148 0;
#X connect 156 0 132 2;
#X connect 157 0 138 0;
#X connect 158 0 62 1;
#X connect 159 0 147 0;
#X connect 160 0 161 0;
#X connect 161 0 177 0;
#X connect 161 0 178 0;
#X connect 161 0 179 0;
#X connect 162 0 163 0;
#X connect 163 0 48 0;
#X connect 164 0 48 0;
#X connect 165 0 169 0;
#X connect 165 0 170 0;
#X connect 166 0 165 0;
#X connect 167 0 197 0;
#X connect 168 0 167 0;
#X connect 171 0 160 0;
#X connect 172 0 175 0;
#X connect 173 0 85 0;
#X connect 174 0 2 0;
#X connect 174 1 2 1;
#X connect 174 1 32 1;
#X connect 175 0 48 0;
#X connect 176 0 91 0;
#X connect 177 0 243 0;
#X connect 178 0 162 0;
#X connect 179 0 172 0;
#X connect 180 0 181 0;
#X connect 180 0 182 0;
#X connect 181 0 183 0;
#X connect 183 0 80 0;
#X connect 183 0 80 1;
#X connect 184 0 80 1;
#X connect 184 0 80 0;
#X connect 185 0 184 0;
#X connect 185 0 224 0;
#X connect 186 0 191 0;
#X connect 187 0 219 0;
#X connect 187 1 250 0;
#X connect 188 0 189 0;
#X connect 190 0 186 0;
#X connect 190 0 188 0;
#X connect 192 0 187 0;
#X connect 193 0 251 0;
#X connect 194 0 187 0;
#X connect 195 0 194 0;
#X connect 196 0 193 0;
#X connect 197 0 198 0;
#X connect 198 0 193 1;
#X connect 199 0 15 0;
#X connect 200 0 80 0;
#X connect 200 0 80 1;
#X connect 201 0 205 0;
#X connect 202 0 253 0;
#X connect 203 0 205 0;
#X connect 204 0 203 0;
#X connect 205 0 242 0;
#X connect 206 0 202 1;
#X connect 207 0 202 0;
#X connect 208 0 156 0;
#X connect 213 0 215 0;
#X connect 214 0 213 0;
#X connect 215 0 206 0;
#X connect 216 0 218 0;
#X connect 217 0 216 0;
#X connect 218 0 102 0;
#X connect 219 0 196 0;
#X connect 220 0 222 0;
#X connect 221 0 220 0;
#X connect 222 0 107 0;
#X connect 223 0 224 0;
#X connect 224 0 80 0;
#X connect 224 0 80 1;
#X connect 225 0 81 0;
#X connect 226 0 96 0;
#X connect 227 0 200 0;
#X connect 228 0 91 1;
#X connect 230 0 233 0;
#X connect 233 0 231 0;
#X connect 233 1 232 0;
#X connect 233 2 234 0;
#X connect 233 3 235 0;
#X connect 236 0 230 0;
#X connect 237 0 22 0;
#X connect 238 0 9 0;
#X connect 241 0 245 0;
#X connect 242 0 207 0;
#X connect 243 0 164 0;
#X connect 244 0 26 0;
#X connect 245 0 239 0;
#X connect 246 0 192 0;
#X connect 246 0 201 0;
#X connect 247 0 241 0;
#X connect 248 0 27 0;
#X connect 248 0 77 0;
#X connect 248 0 171 0;
#X connect 248 0 244 0;
#X connect 249 0 247 0;
#X connect 252 0 239 0;
#X connect 252 0 239 1;
#X connect 252 0 240 0;
#X connect 252 0 255 0;
#X connect 252 0 294 0;
#X connect 254 0 239 0;
#X connect 254 0 239 1;
#X connect 254 0 240 0;
#X connect 254 0 256 0;
#X connect 254 0 294 0;
#X connect 258 0 112 0;
#X connect 258 0 239 0;
#X connect 258 0 239 1;
#X connect 258 0 240 0;
#X connect 258 0 294 0;
#X connect 262 0 214 0;
#X connect 263 0 168 0;
#X connect 264 0 221 0;
#X connect 266 0 217 0;
#X connect 268 0 111 0;
#X connect 268 0 239 0;
#X connect 268 0 239 1;
#X connect 268 0 240 0;
#X connect 268 0 289 0;
#X connect 268 0 294 0;
#X connect 270 0 4 0;
#X connect 272 0 80 0;
#X connect 275 0 11 0;
#X connect 276 0 12 0;
#X connect 280 0 7 0;
#X connect 281 0 5 0;
#X connect 282 0 8 0;
#X connect 286 0 21 0;
#X connect 287 0 24 0;
#X connect 288 0 137 0;
#X connect 290 0 0 0;
#X connect 291 0 131 0;
#X connect 291 0 132 0;
#X connect 291 0 133 0;
#X connect 291 0 134 0;
#X connect 291 0 140 0;
#X connect 292 0 20 0;
#X connect 293 0 118 0;
#X connect 295 0 259 0;
#X connect 296 0 260 0;
#X connect 297 0 265 0;
#X connect 298 0 261 0;
#X connect 299 0 269 0;
